<svg width="83" height="16" viewBox="0 0 83 16" fill="none" xmlns="http://www.w3.org/2000/svg">
<path d="M6.21 7.66C6.85 7.66 7.45 8.04 7.89 8.48L8.15 8.74L12.33 14.28C12.39 14.32 12.41 14.4 12.41 14.52C12.41 14.62 12.37 14.72 12.29 14.8C12.19 14.88 12.09 14.92 11.97 14.92H8.85C8.51 14.92 8.23 14.8 8.05 14.54C7.43 13.72 6.85 13 6.35 12.34C6.05 11.96 5.79 11.64 5.61 11.4C5.43 11.16 5.25 10.94 5.09 10.72C4.93 10.52 4.79 10.34 4.69 10.2C4.57 10.06 4.49 9.96 4.47 9.92H4.39C4.29 9.92 4.27 9.96 4.27 10V14.44C4.27 14.58 4.23 14.7 4.13 14.78C4.03 14.88 3.91 14.92 3.77 14.92H1.11C0.97 14.92 0.87 14.88 0.77 14.78C0.67 14.7 0.61 14.58 0.61 14.44V2.72C0.61 1.76 1.37 0.999999 2.33 0.999999H3.77C4.07 0.999999 4.27 1.2 4.27 1.5V5.54C4.27 5.6 4.31 5.64 4.37 5.64L7.79 1.38C7.95 1.12 8.21 0.999999 8.57 0.999999H11.61C11.71 0.999999 11.81 1.04 11.91 1.12C11.99 1.2 12.03 1.3 12.03 1.4C12.03 1.54 12.01 1.62 11.95 1.64C11.27 2.54 10.65 3.34 10.11 4.04C9.65 4.6 9.23 5.18 8.81 5.76C8.63 5.98 8.49 6.14 8.39 6.28C8.27 6.42 8.21 6.5 8.19 6.52C8.17 6.56 8.09 6.64 7.99 6.76C7.65 7.24 6.83 7.66 6.21 7.66ZM12.0894 14.88C12.0094 14.78 11.9694 14.68 11.9694 14.58C11.9694 14.48 11.9694 14.42 11.9894 14.4L16.6294 1.64C16.7694 1.26 17.0494 1.06 17.4294 1.06H20.5294C20.9094 1.06 21.1894 1.26 21.3294 1.64L25.9694 14.4C25.9894 14.42 25.9894 14.48 25.9894 14.58C25.9894 14.8 25.7894 15 25.5694 15H22.9894C22.6494 15 22.4294 14.86 22.3094 14.56L21.2694 11.74C19.6094 12.36 17.8094 12.62 16.0494 12.62H15.3694C15.5894 12.66 15.7494 12.8 15.8894 13C16.0294 13.22 16.0494 13.5 15.9294 13.8L15.6494 14.56C15.5294 14.86 15.3094 15 14.9694 15H12.3894C12.2894 15 12.1894 14.96 12.0894 14.88ZM20.5094 8.96L18.9694 4.56L17.1694 9.76C18.1894 9.7 19.5894 9.46 20.5094 8.96ZM37.9039 1.08H40.1639C40.3039 1.08 40.4239 1.12 40.5239 1.2C40.6239 1.3 40.6639 1.42 40.6639 1.58V14.52C40.6639 14.66 40.6239 14.78 40.5239 14.86C40.4239 14.96 40.3039 15 40.1639 15H37.6239C37.4039 15 37.1239 14.76 37.1239 14.52V7.68C37.1239 7.62 37.0839 7.58 37.0239 7.58L34.9839 11.2C34.8039 11.5 34.5839 11.66 34.2839 11.66H33.2039C32.9239 11.66 32.6839 11.5 32.5039 11.2L30.5839 7.64L30.3839 14.52C30.3839 14.8 30.1239 15 29.8639 15H27.3439C27.2039 15 27.0839 14.96 26.9839 14.86C26.8839 14.78 26.8439 14.66 26.8439 14.52V2.74C26.8439 1.88 27.6239 1.08 28.4839 1.08H29.6039C29.9239 1.08 30.1639 1.22 30.3239 1.5L33.6439 7.48L37.1839 1.5C37.3439 1.22 37.5839 1.08 37.9039 1.08ZM44.365 0.999999H54.285C54.625 0.999999 54.805 1.18 54.805 1.52V14.44C54.805 14.6 54.765 14.72 54.665 14.8C54.565 14.9 54.445 14.94 54.285 14.94H51.585C51.305 14.94 51.065 14.72 51.065 14.44V4.66C51.025 4.36 50.845 4.16 50.545 4.12H45.185C45.785 4.12 46.285 4.6 46.285 5.2V14.44C46.285 14.58 46.245 14.7 46.145 14.8C46.065 14.9 45.945 14.94 45.785 14.94H43.125C42.825 14.94 42.625 14.74 42.625 14.44V2.74C42.625 2.26 42.805 1.82 43.165 1.5C43.325 1.34 43.505 1.22 43.725 1.14C43.945 1.04 44.145 0.999999 44.365 0.999999ZM67.9859 0.94C68.0859 1.04 68.1259 1.16 68.1259 1.3V9.62C68.1259 13.24 65.4659 14.94 62.1859 14.94C59.3059 14.94 56.4459 13.48 56.3659 10.34C56.3659 10.24 56.4059 10.12 56.4859 10.02C56.5659 9.94 56.6659 9.9 56.7859 9.9H59.6459C59.8259 9.9 59.9659 9.94 60.0859 10.02C60.1859 10.12 60.2659 10.26 60.3459 10.46C60.5459 11.44 61.1859 11.94 62.2859 11.94C62.6459 11.94 62.9459 11.88 63.2059 11.76C63.4659 11.62 63.6659 11.44 63.8259 11.22C63.9659 11 64.0859 10.74 64.1659 10.44C64.2259 10.14 64.2659 9.84 64.2659 9.5V8.9C63.6059 9.06 62.9059 9.14 62.1259 9.14C58.4259 9.14 56.0859 7.38 56.0859 3.66V2.52C56.0859 2.24 56.1459 2 56.2459 1.78C56.3659 1.56 56.5059 1.38 56.6659 1.24C56.8459 1.1 57.0259 0.979999 57.2259 0.919999C57.4459 0.84 57.6459 0.799999 57.8259 0.799999H59.3259C59.6259 0.799999 59.8459 0.999999 59.8459 1.3V3.62C59.8459 5.16 60.5059 6.08 62.1059 6.08C63.2659 6.08 64.0459 5.58 64.2859 4.44V2.54C64.2859 1.56 65.0459 0.799999 66.0259 0.799999H67.6259C67.7859 0.799999 67.9059 0.84 67.9859 0.94ZM75.7889 15.2C72.2289 15.2 69.6889 13.54 69.5689 9.78C69.5489 9.42 69.5489 8.84 69.5489 8.02C69.5489 7.2 69.5489 6.6 69.5689 6.22C69.6889 2.52 72.2889 0.799999 75.7889 0.799999C78.8489 0.799999 82.0089 2.26 82.0689 5.66C82.0689 5.78 82.0289 5.88 81.9489 5.96C81.8489 6.04 81.7489 6.08 81.6289 6.08H78.7889C78.6089 6.08 78.4689 6.04 78.3889 5.96C78.2889 5.9 78.2089 5.76 78.1489 5.56C77.7889 4.28 77.1089 3.8 75.7889 3.8C74.2889 3.8 73.5089 4.64 73.4489 6.32C73.4289 6.68 73.4289 7.24 73.4289 7.98C73.4289 8.72 73.4289 9.3 73.4489 9.68C73.5089 11.36 74.2889 12.2 75.7889 12.2C77.0689 12.2 77.7889 11.68 78.1489 10.44C78.2089 10.24 78.2689 10.1 78.3689 10.02C78.4689 9.96 78.6089 9.92 78.7889 9.92H81.6289C81.7489 9.92 81.8489 9.96 81.9489 10.04C82.0289 10.12 82.0689 10.22 82.0689 10.34C82.0089 13.8 78.7889 15.2 75.7889 15.2Z" fill="#4790FF"/>
</svg>
